PathFileType	4	(X/Y/Z)	T1_P1_Vision_NoMovement_1_0-649.trc
DataRate	CameraRate	NumFrames	NumMarkers	Units	OrigDataRate	OrigDataStartFrame	OrigNumFrames
60	60	5	27	m	60	324	649
Frame#	Time	RHip			RKnee			RAnkle			RBigToe			RSmallToe			RHeel			LHip			LKnee			LAnkle			LBigToe			LSmallToe			LHeel			Neck			Head			Nose			RShoulder			RElbow			RWrist			RThumb			RIndex			RPinky			LShoulder			LElbow			LWrist			LThumb			LIndex			LPinky		
		X1	Y1	Z1	X2	Y2	Z2	X3	Y3	Z3	X4	Y4	Z4	X5	Y5	Z5	X6	Y6	Z6	X7	Y7	Z7	X8	Y8	Z8	X9	Y9	Z9	X10	Y10	Z10	X11	Y11	Z11	X12	Y12	Z12	X13	Y13	Z13	X14	Y14	Z14	X15	Y15	Z15	X16	Y16	Z16	X17	Y17	Z17	X18	Y18	Z18	X19	Y19	Z19	X20	Y20	Z20	X21	Y21	Z21	X22	Y22	Z22	X23	Y23	Z23	X24	Y24	Z24	X25	Y25	Z25	X26	Y26	Z26	X27	Y27	Z27
325	5.416666666666667	-66.76141189595816	3780.534251376417	-539.2620778156637	284.229740307803	3975.671578921688	-526.3014503113586	641.9947593732969	4154.988699710448	-532.1484121622387	705.9700147002402	4052.434855121536	-472.16817985469913	695.3548581134271	3990.1700796158084	-509.57778461459327	676.4797678324164	4188.20632725056	-531.657816888392	-108.10059018934408	3900.624671001337	-356.1554965566402	241.05510083784284	4004.336314522758	-370.25211772721684	619.7361524351195	4244.923625716754	-445.3882303552945	668.6593113580111	3995.015538670559	-347.7698399426709	682.3810326028826	4128.0895178506225	-345.2078215438067	674.7154816174464	4309.884489096515	-486.7037977862318	-676.6672037692384	3667.1108090060666	-477.3920488167764	-913.9480061223694	3527.825333811714	-421.8479945344139	-785.9662017290641	3558.0783305920613	-389.2015783429876	-557.210819062503	3637.7999310923965	-631.950422999903	-292.31242034585506	3721.097123772943	-697.5280490552345	-27.79903153424051	3651.4361440498615	-600.7103519978097	85.2039528958137	3749.887135597959	-553.2178192046428	116.82681254784332	3749.6742368319847	-563.3446832300672	103.67943555134305	3710.5228750270426	-588.3548936834688	-611.1362599168007	3763.2736936874335	-362.5306760810049	-390.60811566484676	3982.1256806867814	-346.33942800447454	-127.19100597974074	3939.9962124159556	-242.4055858805773	15.954211502023725	3901.0946095584686	-273.51040295405096	20.72915187871093	3911.2702100602946	-209.552122147383	-2.013674314958013	3976.608525358425	-217.05581902430836
326	5.433333333333334	-66.75208164079751	3780.4084977319244	-539.2141601726998	284.35128597825553	3976.705997160032	-526.8581922967055	640.7121930385825	4155.163977115839	-532.3693417823579	708.6995879322589	4057.300992025059	-476.1374150296873	695.3926423375941	3995.532962030269	-511.08358518984824	676.1358681327646	4182.631238405752	-530.6689619117562	-108.11919434138836	3900.880207299833	-356.3668160949451	241.23974343417711	4004.3551255203656	-370.21400704038916	618.1145416563846	4242.4803943474935	-444.8517167228428	667.2403734327788	3997.199733772733	-347.9038135893337	680.4089805741584	4132.92831506376	-346.44380535173	672.6291216624398	4305.2113881578225	-484.5382698697755	-677.4675079733587	3668.722118464303	-478.8064557058051	-913.986221042982	3527.9446165135478	-421.91413833311935	-785.2709364208985	3558.3290995824877	-389.1835592357977	-557.5553283658237	3640.7318666008205	-634.453306169006	-292.021548989295	3721.1088375932036	-697.7742176345145	-27.790162885055494	3651.478148412105	-600.7454419925946	85.11125838921724	3749.398520384265	-552.8936609696631	116.91675183427176	3749.5190064083363	-563.2635278220811	102.58451769963739	3707.747439585997	-587.8535241652627	-611.8678026559662	3769.459539560626	-367.0306150079569	-390.31071223613617	3982.203120628636	-346.2941120299143	-127.20448590116807	3939.915036359165	-242.3735130998344	15.92694900162189	3901.2887253054205	-273.64076583243065	20.804549031086385	3912.020712842167	-210.65828561451025	-2.032191883557055	3976.589215095861	-217.01633614473718
327	5.45	-66.73583863884248	3780.353175117044	-539.2021012472491	284.5079168726879	3976.406447496684	-526.8464680421798	638.5279979931036	4154.902615878815	-532.6806989692307	707.5318156756545	4055.211988675937	-476.2707358743941	694.5660662240633	3994.150899624173	-510.83731264661657	676.5387229305925	4176.574986760579	-530.3864440936215	-108.16398964070058	3900.417187704106	-355.9955704621323	241.96424072943876	4004.8202150289185	-370.3544115754454	618.5090163219148	4244.321091301054	-446.7223084812835	665.7682888177803	3996.9503930040137	-348.0402522816653	679.0819817541967	4138.158617325418	-347.7443979218716	672.0644387722547	4306.378709007432	-486.59835666825035	-678.0179200450225	3671.3668702929735	-480.94473868191824	-914.4419484079525	3529.9771278892913	-423.4762981624725	-784.9640075393116	3558.4564305965514	-389.18144083540926	-558.2199177512776	3646.8741915991377	-639.7027023290601	-291.64102617413585	3719.7884216930747	-696.5386753854018	-27.788152083387427	3651.494658497923	-600.7520878677223	85.11921091251229	3750.0339804618698	-553.4209092153055	117.2751678969937	3749.5684109955014	-563.1956672694972	101.49913077141079	3706.9780500423713	-587.695371692479	-612.1955033602859	3772.34505227256	-369.10843089545426	-390.01019335768484	3982.266771994561	-346.2400630561859	-127.22046629370575	3939.754788529411	-242.30509059663603	15.879685363766221	3901.31968873013	-273.69778396508485	20.88550234738006	3908.862054386083	-210.6669775432356	-2.0928719122922534	3976.395115305359	-216.9435833265488
328	5.466666666666667	-66.74298228687721	3780.032231066014	-538.9359725132118	284.5687847905176	3976.3238763842737	-526.9435027946347	636.2238991976706	4153.562713891501	-532.7868621810942	704.2025058994042	4049.610885831078	-473.1725243003965	692.7316472700871	3985.5745827095607	-507.70942221259617	676.8381299601185	4170.1846872581345	-530.8700284578935	-108.09995652136455	3898.083571491864	-354.2671407305738	243.06969811160275	4005.7365947910776	-370.7370496321768	620.3428259319842	4248.423798900274	-449.4164419537377	665.0642508359806	3996.1946690661225	-348.04034696450685	678.5341316336865	4142.553816361416	-348.81109609702463	672.844542208634	4312.635798279363	-491.4845940829142	-678.2442611368414	3672.770262164364	-482.06474352155226	-915.1315045287442	3533.122244276096	-425.89795563248293	-785.0105477347969	3558.475823012219	-389.1964143201669	-558.7138238463111	3651.444651289809	-643.6032926785767	-292.0193428271821	3719.127775601981	-694.5131318832912	-27.792531461183977	3651.5147287403065	-600.7527962076961	85.35217803042109	3752.561947154995	-555.3698258646391	117.90724850194385	3749.855004958178	-563.14296088665	100.89504790707664	3707.252533388262	-587.3997091523429	-611.8570266585356	3769.5319338294153	-367.0420768075667	-390.42065016676594	3982.099787167239	-346.2536673959269	-127.1636970105981	3939.633373943481	-242.23479794732447	15.808779631784855	3900.655723902153	-273.2560200960885	20.843797257395412	3905.960552412472	-209.64590493857946	-2.150599603957291	3976.1802722974044	-216.87154509624284
329	5.483333333333333	-66.82738063892302	3778.4259735445603	-537.654135325299	284.48995433578625	3976.1084755012607	-526.9830072220958	634.2737624558266	4150.14256906488	-532.2901677445898	700.9046610192381	4043.1791539163955	-468.57216947725055	690.2433714035017	3974.5377563739075	-502.69809211352344	676.31496412084	4165.3795151929635	-531.3951436234464	-107.70998203436868	3893.734157121233	-351.2362962583514	243.69110271923307	4006.381028564378	-371.1757884930299	622.2080834132796	4252.102163633444	-451.68160019075054	665.0739218385461	3995.66487835366	-348.57899462579564	678.1272903046944	4145.193830337726	-349.4670711447668	673.9914315219918	4318.601565331297	-495.33064338484417	-678.0484973376872	3671.3770356648365	-480.9592030708296	-915.8339904762698	3536.346254055511	-428.3706781059026	-785.1846912526562	3558.4491884422073	-389.21721747831907	-558.7073188720466	3651.243452594159	-643.4251655956276	-293.4592190135312	3721.725380045529	-693.0584862629294	-27.803362146218053	3651.554221014806	-600.7562076887125	85.83141055756735	3757.3329214879145	-559.0083231362684	118.39683641047476	3750.182303538117	-563.130518299084	100.79687675467648	3707.829598688819	-586.7405258966372	-611.1401957135672	3763.3577842163813	-362.54496881924024	-391.2218145955309	3981.785980116416	-346.2978616762805	-127.0614931327039	3939.5928180611318	-242.18939091945714	15.658743909725494	3898.5312327616657	-271.80091136037623	20.764190812843196	3904.08643815699	-208.26778737920694	-2.172154028343692	3976.0356048270587	-216.83967937543406
